<svg width="1920" height="900" xmlns="http://www.w3.org/2000/svg" preserveAspectRatio="xMidYMid meet" version="1.0">
 <defs>
  <linearGradient y2="100%" x2="0%" y1="0%" x1="0%" id="grad1">
   <stop stop-color="rgb(29, 108, 182)" offset="0%"/>
   <stop stop-color="rgb(35, 35, 35)" offset="95%"/>
  </linearGradient>
 </defs>
 <g>
  <title>Layer 1</title>
  <rect stroke="#000" stroke-width="0" id="svg_8" height="152" width="1925.99992" y="778" x="-0.49988" fill="#1d6cb5"/>
  <g stroke="null" id="svg_1" fill="url(#grad1)" transform="translate(0 750) scale(0.1 -0.1)">
   <path stroke="null" id="svg_2" d="m0,6498.98383l0,-998.01598l21,18.7128c11,9.3564 31,38.4652 44,64.4552c13,25.99 47,76.9304 75,114.356c27,37.4256 84,119.554 126,181.93c124,185.0488 201,282.77119 339,430.39439c609,649.74998 1507,1015.68917 2765,1125.88677c209,18.7128 1166,18.7128 1385,0c1058,-87.3264 1937,-238.06839 3080,-528.11679c149,-37.4256 297,-72.772 330,-79.0096c33,-5.198 119,-21.8316 190,-35.3464c230,-44.7028 345,-57.178 590,-63.4156c532,-13.5148 963,68.6136 1190,226.63279c128,89.4056 193,215.19719 202,388.81039c3,55.0988 0,104.9996 -6,122.6728l-11,28.0692l-5160,0l-5160,0l0,-998.01598z"/>
   <path stroke="null" id="svg_3" d="m10235,6445.96423c-227,-11.4356 -343,-32.2276 -540,-98.762c-732,-247.42479 -1188,-719.40318 -1440,-1491.82596c-31,-95.6432 -45,-162.1776 -100,-487.57239c-45,-265.09799 -60,-610.24518 -34,-794.25438c6,-40.5444 15,-165.2964 19,-276.53359c5,-111.2372 12,-252.62279 16,-312.91959c7,-108.1184 -6,-346.18679 -27,-492.77039c-17,-114.356 -107,-521.87919 -136,-612.32438c-36,-113.3164 -99,-263.01879 -186,-436.63199c-262,-524.99799 -574,-871.18478 -1124,-1247.51997c-209,-142.4252 -335,-211.03879 -628,-336.83039c-250,-108.1184 -329,-137.2272 -377,-137.2272c-15,0 -28,-4.1584 -28,-10.396c0,-7.2772 2265,-10.396 6775,-10.396l6775,0l0,1508.45956c0,1432.56876 -1,1508.45956 -17,1503.26156c-10,-3.1188 -74,-31.188 -143,-62.376c-284,-127.8708 -683,-261.97919 -830,-278.61279c-52,-5.198 -131,-17.6732 -175,-25.99c-319,-59.2572 -577,-36.386 -1005,90.4452c-248,73.8116 -593,259.89999 -938,504.20599c-216,152.8212 -830,638.31438 -942,743.31398c-58,55.0988 -168,150.742 -245,212.07839c-217,174.6528 -311,254.70199 -730,618.56198c-844,733.95758 -1001,853.51158 -1580,1211.13397c-417,257.82079 -631,362.82039 -1020,501.08719c-305,107.0788 -457,148.6628 -615,165.2964c-80,8.3168 -179,21.8316 -220,31.188c-41,8.3168 -122,17.6732 -180,20.792c-58,3.1188 -121,6.2376 -140,7.2772c-19,1.0396 -102,-1.0396 -185,-4.1584z"/>
  </g>
  <ellipse stroke="#000" stroke-width="0" ry="35" rx="316.99999" id="svg_6" cy="766" cx="270.99999" fill="#ffffff"/>
 </g>
</svg>