<svg width="1919.9999999999998" height="4000" xmlns="http://www.w3.org/2000/svg" preserveAspectRatio="xMidYMid meet" version="1.0">
 <g id="Layer_1">
  <title>Layer 1</title>
  <g id="svg_41">
   <ellipse ry="250" rx="250" id="svg_16" cy="1950" cx="960" stroke-width="5" stroke="#1e6cb5" fill="none"/>
   <ellipse ry="400" rx="400" id="svg_28" cy="1950" cx="960" stroke-width="5" stroke="#1e6cb5" fill="none"/>
   <ellipse ry="550" rx="550" id="svg_30" cy="1950" cx="960" stroke-width="5" stroke="#1e6cb5" fill="none"/>
   <ellipse ry="700" rx="700" id="svg_32" cy="1950" cx="960" stroke-width="5" stroke="#1e6cb5" fill="none"/>
   <ellipse ry="850" rx="850" id="svg_33" cy="1950" cx="960" stroke-width="5" stroke="#1e6cb5" fill="none"/>
   <ellipse ry="1000" rx="1000" id="svg_34" cy="1950" cx="960" stroke-width="5" stroke="#1e6cb5" fill="none"/>
   <ellipse ry="1150" rx="1150" id="svg_35" cy="1950" cx="960" stroke-width="5" stroke="#1e6cb5" fill="none"/>
   <ellipse ry="1300" rx="1300" id="svg_36" cy="1950" cx="960" stroke-width="5" stroke="#1e6cb5" fill="none"/>
   <path id="svg_38" d="m960,3400c-801.10497,0 -1450,-648.89503 -1450,-1450c0,-801.10497 648.89503,-1450 1450,-1450c801.10497,0 1450,648.89503 1450,1450c0,801.10497 -648.89503,1450 -1450,1450z" opacity="undefined" stroke-width="5" stroke="#1e6cb5" fill="none"/>
  </g>
 </g>
</svg>